<svg width="92" height="32" viewBox="0 0 92 32" fill="none" xmlns="http://www.w3.org/2000/svg">
<path d="M78.7854 26.9477C75.3351 26.9477 74.7439 23.5419 75.8332 20.2273C76.6957 17.593 78.7388 14.823 81.7821 14.823C85.3701 14.823 85.7325 18.4556 84.6877 21.6345C83.7785 24.36 81.7355 26.9477 78.7854 26.9477ZM77.7406 31.8052C83.734 31.8052 89.0917 28.4905 91.2258 22.4971C93.4511 16.1858 90.9524 9.87443 82.7803 9.87443C76.2422 9.87443 71.247 13.9605 69.3396 19.3647C67.2054 25.4493 69.5219 31.8052 77.7406 31.8052ZM57.8529 31.8052C60.2138 31.8052 62.6213 31.305 64.2999 30.5802C64.8911 28.9462 64.9356 27.3567 64.4821 25.7672C63.3016 26.2207 61.6677 26.6764 59.987 26.6764C55.4453 26.6764 55.0384 23.3173 55.9921 20.4562C57.0369 17.415 59.7603 14.9629 64.0752 14.9629C65.2112 14.9629 66.3005 15.1452 66.9808 15.5542C68.1612 13.9647 68.8415 12.3752 68.9793 10.7412C67.9811 10.2877 66.3005 9.87867 64.1218 9.87867C57.0391 9.87867 51.4525 14.0113 49.4561 19.7314C47.5487 25.1357 49.0026 31.8094 57.8571 31.8094L57.8529 31.8052ZM33.4701 18.7735C34.6951 16.048 36.6025 14.4606 39.1011 14.4606C41.3264 14.4606 41.6888 15.6856 41.3264 16.6393C40.7817 17.9554 38.9189 18.7735 33.4701 18.7735ZM35.422 31.8052C37.7384 31.8052 41.0064 31.3516 43.7318 29.9889C44.1854 28.4905 44.1409 26.9922 43.6407 25.4472C41.9156 26.3098 39.508 26.8099 37.3294 26.8099C34.1059 26.8099 32.3341 25.7651 32.3808 23.1329C41.1887 23.3597 45.7749 21.7702 47.2732 17.8664C48.7716 13.916 46.1839 9.87443 40.0527 9.87443C33.5146 9.87443 28.7016 14.5518 26.9299 19.5915C25.0691 24.9492 26.2496 31.8052 35.4199 31.8052H35.422ZM9.10215 31.8052C15.1422 31.8052 18.5776 29.0352 22.5726 20.5452C24.7512 15.8679 26.6141 11.2817 28.7482 6.74208L31.2914 7.56013C31.9717 7.7869 32.3363 7.37787 32.0184 6.74208L28.9305 0.430743C28.7037 -0.0227917 28.2036 -0.0694168 27.8857 0.068339L20.2116 2.97393C19.5758 3.20069 19.6203 3.79198 20.2561 3.97213L22.5259 4.69905C20.6652 8.92286 18.3487 15.2787 16.4859 19.2736C14.3962 23.7242 13.3535 26.8565 9.81213 26.8565C6.27074 26.8565 5.67945 24.0866 7.17781 20.1362C8.90294 15.55 11.8085 14.1872 15.1231 15.1409C16.0323 13.8693 16.7126 11.962 16.9839 10.2368C16.0302 9.96344 14.8943 9.87443 13.9427 9.87443C8.58504 9.87443 3.27191 12.6444 1.09325 18.4556C-1.72121 25.9474 0.881314 31.8052 9.10004 31.8052H9.10215Z" fill="#292929"/>
</svg>
