<svg width="60" height="61" viewBox="0 0 60 61" fill="none" xmlns="http://www.w3.org/2000/svg">
<rect y="0.809326" width="60" height="60" rx="30" fill="#F0F0F0"/>
<g opacity="0.3">
<path fill-rule="evenodd" clip-rule="evenodd" d="M22.5 20.3093C20.8431 20.3093 19.5 21.6525 19.5 23.3093V31.6879L22.9393 28.2486L22.9599 28.2284C23.8635 27.3589 24.9963 26.8044 26.25 26.8044C27.5037 26.8044 28.6365 27.3589 29.5401 28.2284L29.5607 28.2486L33 31.6879L33.4393 31.2486L33.4599 31.2284C34.3635 30.3589 35.4963 29.8044 36.75 29.8044C38.0037 29.8044 39.1365 30.3589 40.0401 31.2284L40.0607 31.2486L40.5 31.6879V23.3093C40.5 21.6525 39.1569 20.3093 37.5 20.3093H22.5ZM43.5 35.3078V23.3093C43.5 19.9956 40.8137 17.3093 37.5 17.3093H22.5C19.1863 17.3093 16.5 19.9956 16.5 23.3093V35.309C16.5 35.3088 16.5 35.3092 16.5 35.309V38.3093C16.5 41.623 19.1863 44.3093 22.5 44.3093H37.5C40.8137 44.3093 43.5 41.623 43.5 38.3093V35.3107C43.5 35.3097 43.5 35.3088 43.5 35.3078ZM40.5 35.9306L37.9505 33.3811C37.4897 32.9412 37.0739 32.8044 36.75 32.8044C36.4261 32.8044 36.0103 32.9412 35.5495 33.3811L35.1213 33.8093L37.0607 35.7486C37.6464 36.3344 37.6464 37.2841 37.0607 37.8699C36.4749 38.4557 35.5251 38.4557 34.9393 37.8699L27.4505 30.3811C26.9897 29.9412 26.5739 29.8044 26.25 29.8044C25.9261 29.8044 25.5103 29.9412 25.0495 30.3811L19.5 35.9306V38.3093C19.5 39.9662 20.8431 41.3093 22.5 41.3093H37.5C39.1569 41.3093 40.5 39.9662 40.5 38.3093V35.9306ZM33 24.8093C33 23.9809 33.6716 23.3093 34.5 23.3093H34.515C35.3434 23.3093 36.015 23.9809 36.015 24.8093C36.015 25.6378 35.3434 26.3093 34.515 26.3093H34.5C33.6716 26.3093 33 25.6378 33 24.8093Z" fill="#787878"/>
</g>
</svg>
