<svg width="16" height="11" viewBox="0 0 16 11" fill="none" xmlns="http://www.w3.org/2000/svg">
<path d="M0.999986 0H15C15.552 0 16 0.41167 16 0.919391V9.64942C16 10.1567 15.552 10.5684 15 10.5684H0.999986C0.447485 10.5684 0 10.1567 0 9.64947V0.919391C0 0.41167 0.447979 0 0.999986 0Z" fill="white"/>
<path d="M2.58002 3.30264L1 6.76694H2.8915L3.12599 6.21459H3.66199L3.89648 6.76694H5.97849V6.34537L6.16401 6.76694H7.24099L7.42651 6.33646V6.76694H11.7565L12.283 6.22893L12.776 6.76694L15 6.7714L13.415 5.04446L15 3.30264H12.8105L12.298 3.83071L11.8205 3.30264H7.11003L6.70554 4.19681L6.29156 3.30264H4.40401V3.70987L4.19403 3.30264C4.19403 3.30264 2.58002 3.30264 2.58002 3.30264ZM2.94601 3.79458H3.86802L4.91604 6.14374V3.79458H5.92606L6.73554 5.47891L7.48157 3.79458H8.48654V6.28044H7.87504L7.87005 4.33253L6.97853 6.28044H6.43151L5.53501 4.33253V6.28044H4.277L4.03851 5.72314H2.75002L2.51202 6.27995H1.83799L2.94601 3.79458ZM9.04601 3.79458H11.5325L12.293 4.60849L13.078 3.79458H13.8385L12.683 5.04397L13.8385 6.27897H13.0435L12.283 5.4556L11.494 6.27897H9.04601V3.79458ZM3.39454 4.21517L2.97003 5.20795H3.81855L3.39454 4.21517ZM9.66004 4.30928V4.76307H11.0165V5.26886H9.66004V5.76427H11.1815L11.8885 5.03457L11.2115 4.30884H9.66004V4.30928Z" fill="#333333"/>
</svg>
