<svg width="16" height="14" viewBox="0 0 16 14" fill="none" xmlns="http://www.w3.org/2000/svg">
<path d="M0.289429 7.03524C0.289429 3.34787 3.27856 0.358624 6.96592 0.358624C10.6533 0.358624 13.6424 3.34787 13.6424 7.03524C13.6424 10.7224 10.6533 13.7118 6.96592 13.7118C3.27856 13.7118 0.289429 10.7224 0.289429 7.03524Z" fill="white"/>
<path d="M11.0039 6.90307C11.001 5.19344 9.93216 3.73507 8.42662 3.15786V10.6482C9.93216 10.0701 11.001 8.61328 11.0039 6.90307ZM5.55347 10.6468V3.15841C4.049 3.73777 2.98185 5.19396 2.97794 6.90307C2.98185 8.61193 4.049 10.0681 5.55347 10.6468ZM6.99067 0.571918C3.49419 0.573264 0.661526 3.4066 0.660849 6.90307C0.661526 10.3993 3.49419 13.2321 6.99067 13.2327C10.4873 13.2321 13.3209 10.3993 13.3217 6.90307C13.3209 3.4066 10.4873 0.573264 6.99067 0.571918ZM6.97527 13.8303C3.14898 13.8485 0 10.7487 0 6.97524C0 2.85151 3.14898 -0.000710487 6.97527 -1.90735e-05H8.76829C12.5491 -0.000710487 16 2.8503 16 6.97524C16 10.7473 12.5491 13.8303 8.76829 13.8303H6.97527Z" fill="#214E8D"/>
</svg>
