<svg width="20" height="8" viewBox="0 0 20 8" fill="none" xmlns="http://www.w3.org/2000/svg">
<path d="M3.11769 2.02881C3.34245 1.95361 3.58295 1.91319 3.83297 1.91319C4.92356 1.91319 5.83356 2.68779 6.04259 3.71775L7.58847 3.40205C7.23379 1.65277 5.68733 0.335546 3.83297 0.335546C3.40785 0.335546 2.99961 0.404692 2.6178 0.532445L3.11769 2.02881Z" fill="white"/>
<path d="M1.29355 7.03888L2.33896 5.85691C1.87212 5.44334 1.57807 4.84008 1.57807 4.16797C1.57807 3.49615 1.87212 2.89319 2.33838 2.48005L1.29269 1.29794C0.499897 2.00007 0 3.0257 0 4.16797C0 5.31082 0.500474 6.33674 1.29355 7.03888Z" fill="white"/>
<path d="M6.04164 4.62052C5.83276 5.64932 4.92319 6.42277 3.83288 6.42277C3.58258 6.42277 3.34179 6.38235 3.11703 6.30671L2.61627 7.80337C2.99838 7.93127 3.40747 7.99998 3.83288 7.99998C5.68552 7.99998 7.23169 6.6855 7.58781 4.93708L6.04164 4.62052Z" fill="white"/>
<path d="M12.0295 5.44026C12.0289 5.44098 12.0287 5.44127 12.0284 5.44199L11.9842 5.41197C11.8576 5.61767 11.6604 5.78397 11.411 5.8918C10.9365 6.09823 10.4969 6.04525 10.1814 5.76838L10.1523 5.81226C10.1521 5.81197 10.1521 5.81154 10.1515 5.81154L9.61304 6.61689C9.74671 6.70956 9.8902 6.78853 10.0408 6.85132C10.6356 7.09816 11.2441 7.08662 11.8434 6.82606C12.2768 6.63854 12.617 6.35186 12.8497 5.98866L12.0295 5.44026ZM10.3488 3.45352C9.84848 3.66875 9.58994 4.13848 9.64321 4.68962L11.7648 3.7763C11.4003 3.34728 10.9252 3.20538 10.3488 3.45352ZM8.94035 5.90667C8.88954 5.82468 8.82068 5.69317 8.77925 5.59674C8.53457 5.02842 8.52274 4.44032 8.72945 3.87576C8.95666 3.25634 9.39117 2.78242 9.95184 2.54106C10.6576 2.23734 11.4377 2.29754 12.1138 2.69841C12.543 2.94468 12.8474 3.32505 13.0787 3.86291C13.1083 3.93177 13.1338 4.00568 13.1592 4.06804L8.94035 5.90667Z" fill="white"/>
<path d="M14.6341 1.35506V5.83262L15.3302 6.11454L14.9347 7.03725L14.1664 6.71794C13.9938 6.64302 13.8766 6.52869 13.7875 6.39964C13.7029 6.26813 13.6391 6.08769 13.6391 5.84489V1.35506H14.6341Z" fill="white"/>
<path d="M16.4371 4.69172C16.4377 4.31062 16.6063 3.96865 16.8725 3.73624L16.1583 2.94013C15.6739 3.36843 15.3692 3.99362 15.3683 4.6907C15.3675 5.38851 15.6719 6.01443 16.1564 6.44374L16.8693 5.64647C16.6046 5.41348 16.4371 5.07209 16.4371 4.69172Z" fill="white"/>
<path d="M17.7061 5.9625C17.5657 5.96221 17.4304 5.93883 17.3038 5.89668L16.9627 6.9112C17.1958 6.98944 17.4459 7.03188 17.7053 7.03216C18.8358 7.03318 19.7803 6.23086 19.9989 5.16423L18.9506 4.95044C18.8317 5.52843 18.3193 5.96308 17.7061 5.9625Z" fill="white"/>
<path d="M17.7093 2.35349C17.4499 2.3532 17.2007 2.39535 16.9675 2.47287L17.3058 3.48796C17.4324 3.44624 17.5678 3.42286 17.7084 3.42286C18.3231 3.42358 18.8354 3.86068 18.9515 4.44041L20 4.22749C19.7847 3.15956 18.8413 2.35421 17.7093 2.35349Z" fill="white"/>
</svg>
