<svg width="20" height="18" viewBox="0 0 20 18" fill="none" xmlns="http://www.w3.org/2000/svg">
<path d="M12.7036 2.27694H7.29559V11.9958H12.7036V2.27694Z" fill="#FF5F00"/>
<path d="M7.63891 7.13759C7.63791 6.20146 7.84993 5.27737 8.25891 4.43531C8.6679 3.59324 9.26313 2.85528 9.99952 2.27729C9.08774 1.56073 7.99276 1.11515 6.83972 0.991462C5.68668 0.867776 4.52211 1.07098 3.47909 1.57785C2.43608 2.08472 1.55671 2.87481 0.941481 3.85781C0.326256 4.84082 0 5.97708 0 7.13673C0 8.29639 0.326256 9.43265 0.941481 10.4157C1.55671 11.3987 2.43608 12.1887 3.47909 12.6956C4.52211 13.2025 5.68668 13.4057 6.83972 13.282C7.99276 13.1583 9.08774 12.7127 9.99952 11.9962C9.26336 11.4184 8.66827 10.6807 8.25929 9.83893C7.85032 8.99718 7.63817 8.07343 7.63891 7.13759Z" fill="#EB001B"/>
<path d="M19.9999 7.13724C19.9999 8.29698 19.6736 9.43331 19.0583 10.4164C18.4429 11.3994 17.5634 12.1895 16.5203 12.6963C15.4771 13.2031 14.3124 13.4061 13.1593 13.2823C12.0062 13.1584 10.9112 12.7126 9.99951 11.9958C10.7354 11.4175 11.3303 10.6796 11.7394 9.83781C12.1485 8.99602 12.361 8.07231 12.361 7.13638C12.361 6.20045 12.1485 5.27674 11.7394 4.43495C11.3303 3.59316 10.7354 2.85526 9.99951 2.27694C10.9112 1.56016 12.0062 1.11436 13.1593 0.990494C14.3124 0.86663 15.4771 1.0697 16.5203 1.5765C17.5634 2.0833 18.4429 2.87337 19.0583 3.85641C19.6736 4.83945 19.9999 5.97578 19.9999 7.13552V7.13724Z" fill="#F79E1B"/>
<path d="M19.4093 10.9657V10.7666H19.4899V10.7253H19.2856V10.7666H19.3732V10.9657H19.4093ZM19.8058 10.9657V10.7253H19.744L19.6719 10.897L19.5998 10.7253H19.5449V10.9657H19.5895V10.7854L19.6565 10.9417H19.7028L19.7698 10.7854V10.9674L19.8058 10.9657Z" fill="#F79E1B"/>
<path d="M2.77511 16.9468V15.7696C2.78151 15.6705 2.76816 15.5712 2.73593 15.4782C2.70371 15.3851 2.65336 15.3005 2.58823 15.23C2.52311 15.1594 2.4447 15.1046 2.35825 15.069C2.27179 15.0335 2.17926 15.0182 2.08683 15.024C1.96584 15.0155 1.84494 15.0419 1.73675 15.1006C1.62856 15.1593 1.53704 15.248 1.47176 15.3575C1.41226 15.2513 1.32711 15.1642 1.22531 15.1055C1.1235 15.0468 1.0088 15.0186 0.893308 15.024C0.792631 15.0185 0.692372 15.0414 0.602467 15.0902C0.512562 15.1391 0.436133 15.2123 0.380754 15.3026V15.0711H0V16.9468H0.384416V15.9147C0.376239 15.8506 0.381383 15.7853 0.399482 15.7236C0.41758 15.6618 0.448185 15.6051 0.48911 15.5575C0.530034 15.5098 0.580266 15.4725 0.636216 15.4481C0.692167 15.4237 0.752452 15.4129 0.812764 15.4164C1.06538 15.4164 1.19352 15.593 1.19352 15.9108V16.9546H1.57793V15.9147C1.57009 15.8507 1.57547 15.7855 1.59369 15.7239C1.61191 15.6623 1.64253 15.6057 1.68339 15.5582C1.72424 15.5107 1.77434 15.4733 1.83013 15.4488C1.88592 15.4243 1.94606 15.4132 2.00628 15.4164C2.26622 15.4164 2.3907 15.593 2.3907 15.9108V16.9546L2.77511 16.9468ZM8.46263 15.0711H7.83658V14.5021H7.45217V15.0711H7.10436V15.4439H7.45949V16.3072C7.45949 16.7427 7.61692 17.0017 8.06723 17.0017C8.23547 17.0023 8.40045 16.952 8.54318 16.8565L8.43334 16.5073C8.33124 16.5726 8.21535 16.609 8.09652 16.6132C7.91347 16.6132 7.84391 16.4877 7.84391 16.2993V15.4439H8.46629L8.46263 15.0711ZM11.71 15.024C11.6172 15.021 11.5253 15.045 11.4442 15.0934C11.363 15.1417 11.2955 15.2126 11.2487 15.2987V15.0711H10.8716V16.9468H11.2524V15.8951C11.2524 15.5851 11.3769 15.4125 11.6185 15.4125C11.6999 15.4113 11.7808 15.4273 11.8565 15.4595L11.9736 15.0671C11.8867 15.0338 11.7951 15.0165 11.7027 15.0161L11.71 15.024ZM6.80049 15.2202C6.58497 15.0828 6.33717 15.0147 6.08658 15.024C5.64359 15.024 5.35436 15.2516 5.35436 15.6244C5.35436 15.9304 5.5667 16.1188 5.95844 16.1777L6.1415 16.2051C6.35018 16.2365 6.44903 16.2954 6.44903 16.4013C6.44903 16.5465 6.30991 16.6289 6.04997 16.6289C5.84088 16.6354 5.63584 16.5663 5.46785 16.4327L5.2848 16.7506C5.50659 16.9166 5.77224 17.0019 6.04265 16.9939C6.54788 16.9939 6.84077 16.7388 6.84077 16.3817C6.84077 16.0246 6.61012 15.8794 6.22936 15.8206L6.04631 15.7931C5.88156 15.7696 5.74976 15.7342 5.74976 15.6087C5.74976 15.4831 5.87423 15.3889 6.08292 15.3889C6.2758 15.3913 6.46488 15.4467 6.63208 15.5498L6.80049 15.2202ZM16.9985 15.024C16.9057 15.021 16.8138 15.045 16.7326 15.0934C16.6514 15.1417 16.5839 15.2126 16.5372 15.2987V15.0711H16.1601V16.9468H16.5409V15.8951C16.5409 15.5851 16.6653 15.4125 16.907 15.4125C16.9884 15.4113 17.0693 15.4273 17.1449 15.4595L17.2621 15.0671C17.1751 15.0338 17.0835 15.0165 16.9912 15.0161L16.9985 15.024ZM12.0926 16.005C12.0881 16.1368 12.1093 16.2682 12.1548 16.3907C12.2004 16.5133 12.2693 16.6242 12.3572 16.7166C12.4451 16.8089 12.55 16.8806 12.6652 16.927C12.7804 16.9734 12.9033 16.9935 13.0262 16.986C13.2548 16.9985 13.4795 16.9187 13.6559 16.7624L13.4728 16.4327C13.3412 16.5403 13.1807 16.5995 13.0152 16.6015C12.8745 16.5893 12.7432 16.5207 12.6474 16.4095C12.5517 16.2982 12.4986 16.1524 12.4986 16.0011C12.4986 15.8497 12.5517 15.7039 12.6474 15.5927C12.7432 15.4814 12.8745 15.4129 13.0152 15.4007C13.1807 15.4027 13.3412 15.4618 13.4728 15.5694L13.6559 15.2398C13.4795 15.0835 13.2548 15.0037 13.0262 15.0161C12.9033 15.0087 12.7804 15.0288 12.6652 15.0752C12.55 15.1216 12.4451 15.1932 12.3572 15.2856C12.2693 15.3779 12.2004 15.4889 12.1548 15.6114C12.1093 15.734 12.0881 15.8653 12.0926 15.9972V16.005ZM15.6585 16.005V15.0711H15.2778V15.2987C15.2131 15.2095 15.1296 15.1381 15.0341 15.0903C14.9386 15.0425 14.8339 15.0198 14.7286 15.024C14.4859 15.024 14.2531 15.1273 14.0814 15.3113C13.9098 15.4953 13.8133 15.7448 13.8133 16.005C13.8133 16.2652 13.9098 16.5147 14.0814 16.6987C14.2531 16.8827 14.4859 16.986 14.7286 16.986C14.8339 16.9902 14.9386 16.9675 15.0341 16.9197C15.1296 16.8719 15.2131 16.8005 15.2778 16.7113V16.9389H15.6585V16.005ZM14.2417 16.005C14.2478 15.8946 14.2838 15.7885 14.3454 15.6998C14.407 15.6111 14.4915 15.5436 14.5885 15.5057C14.6854 15.4678 14.7906 15.4611 14.891 15.4864C14.9915 15.5118 15.0828 15.568 15.1538 15.6483C15.2248 15.7286 15.2723 15.8294 15.2905 15.9382C15.3087 16.0471 15.2969 16.1593 15.2563 16.261C15.2158 16.3627 15.1484 16.4495 15.0625 16.5107C14.9765 16.5719 14.8757 16.6048 14.7725 16.6054C14.7001 16.6064 14.6282 16.5913 14.5614 16.561C14.4946 16.5308 14.4344 16.4861 14.3846 16.4297C14.3347 16.3733 14.2963 16.3064 14.2717 16.2334C14.2471 16.1603 14.2369 16.0825 14.2417 16.005ZM9.647 15.024C9.40425 15.0276 9.1728 15.1345 9.00355 15.321C8.83431 15.5076 8.74114 15.7586 8.74454 16.0187C8.74794 16.2789 8.84762 16.527 9.02168 16.7084C9.19573 16.8898 9.42988 16.9897 9.67263 16.986C9.936 17.0005 10.195 16.9096 10.3994 16.731L10.2163 16.4288C10.0718 16.5531 9.89268 16.6221 9.70741 16.625C9.58155 16.6366 9.45643 16.5951 9.35866 16.5094C9.26089 16.4237 9.19818 16.3004 9.18387 16.1659H10.4836C10.4836 16.1149 10.4836 16.0639 10.4836 16.0089C10.4836 15.4203 10.1431 15.0279 9.65249 15.0279L9.647 15.024ZM9.647 15.3889C9.70397 15.3876 9.76063 15.3984 9.81373 15.4205C9.86683 15.4427 9.91534 15.4759 9.95648 15.5181C9.99762 15.5604 10.0306 15.611 10.0535 15.6669C10.0764 15.7228 10.0888 15.783 10.09 15.8441H9.17472C9.18135 15.7182 9.23372 15.6 9.32062 15.5149C9.40752 15.4298 9.52205 15.3846 9.63968 15.3889H9.647ZM19.186 16.0089V14.3176H18.8199V15.2987C18.7552 15.2095 18.6717 15.1381 18.5762 15.0903C18.4807 15.0425 18.376 15.0198 18.2707 15.024C18.028 15.024 17.7952 15.1273 17.6235 15.3113C17.4519 15.4953 17.3554 15.7448 17.3554 16.005C17.3554 16.2652 17.4519 16.5147 17.6235 16.6987C17.7952 16.8827 18.028 16.986 18.2707 16.986C18.376 16.9902 18.4807 16.9675 18.5762 16.9197C18.6717 16.8719 18.7552 16.8005 18.8199 16.7113V16.9389H19.186V16.0089ZM19.8212 16.6741C19.845 16.6738 19.8686 16.6784 19.8908 16.6878C19.9118 16.697 19.931 16.7103 19.9475 16.727C19.9636 16.744 19.9766 16.7639 19.9859 16.7859C19.9952 16.8088 20 16.8335 20 16.8585C20 16.8835 19.9952 16.9082 19.9859 16.9311C19.9766 16.9531 19.9636 16.973 19.9475 16.99C19.931 17.0067 19.9118 17.02 19.8908 17.0292C19.8688 17.0396 19.8451 17.0449 19.8212 17.0449C19.7865 17.0446 19.7526 17.0338 19.7234 17.0136C19.6942 16.9935 19.671 16.9649 19.6564 16.9311C19.6473 16.9082 19.6426 16.8835 19.6426 16.8585C19.6426 16.8335 19.6473 16.8088 19.6564 16.7859C19.6658 16.7639 19.6788 16.744 19.6949 16.727C19.7114 16.7103 19.7306 16.697 19.7516 16.6878C19.7755 16.6776 19.801 16.673 19.8267 16.6741H19.8212ZM19.8212 17.0057C19.8395 17.0058 19.8576 17.0018 19.8743 16.9939C19.89 16.9863 19.9043 16.9757 19.9164 16.9625C19.9393 16.9357 19.952 16.9007 19.952 16.8644C19.952 16.8281 19.9393 16.7931 19.9164 16.7663C19.9043 16.753 19.8901 16.7424 19.8743 16.7349C19.8575 16.7271 19.8395 16.7231 19.8212 16.7231C19.8029 16.7232 19.7849 16.7272 19.7681 16.7349C19.7517 16.7421 19.7367 16.7528 19.7242 16.7663C19.7013 16.7931 19.6886 16.8281 19.6886 16.8644C19.6886 16.9007 19.7013 16.9357 19.7242 16.9625C19.7368 16.9759 19.7517 16.9866 19.7681 16.9939C19.7866 17.0024 19.8066 17.0064 19.8267 17.0057H19.8212ZM19.8322 16.7722C19.8493 16.7713 19.8661 16.7768 19.8798 16.7879C19.8854 16.7928 19.8898 16.7992 19.8927 16.8063C19.8955 16.8135 19.8968 16.8213 19.8962 16.8291C19.8965 16.8356 19.8955 16.8421 19.8933 16.8482C19.8911 16.8543 19.8877 16.8598 19.8834 16.8644C19.8728 16.8747 19.8593 16.8809 19.845 16.882L19.8981 16.9468H19.856L19.8066 16.882H19.7901V16.9468H19.7553V16.7741L19.8322 16.7722ZM19.7919 16.8055V16.8526H19.8322C19.8393 16.8549 19.847 16.8549 19.8541 16.8526C19.8554 16.8499 19.8561 16.8469 19.8561 16.8438C19.8561 16.8407 19.8554 16.8377 19.8541 16.835C19.8554 16.8322 19.8561 16.8292 19.8561 16.8261C19.8561 16.8231 19.8554 16.82 19.8541 16.8173C19.847 16.815 19.8393 16.815 19.8322 16.8173L19.7919 16.8055ZM17.7783 16.0089C17.7844 15.8985 17.8204 15.7924 17.8821 15.7037C17.9437 15.615 18.0282 15.5475 18.1251 15.5096C18.222 15.4717 18.3272 15.465 18.4276 15.4903C18.5281 15.5157 18.6194 15.572 18.6904 15.6522C18.7614 15.7325 18.8089 15.8333 18.8271 15.9422C18.8454 16.051 18.8335 16.1632 18.793 16.2649C18.7524 16.3667 18.685 16.4535 18.5991 16.5146C18.5131 16.5758 18.4123 16.6087 18.3092 16.6093C18.2367 16.6103 18.1648 16.5952 18.098 16.565C18.0313 16.5347 17.971 16.49 17.9212 16.4336C17.8713 16.3772 17.8329 16.3104 17.8083 16.2373C17.7837 16.1642 17.7735 16.0865 17.7783 16.0089ZM4.92235 16.0089V15.0711H4.54159V15.2987C4.47693 15.2095 4.39341 15.1381 4.29793 15.0903C4.20244 15.0425 4.09773 15.0198 3.99243 15.024C3.74968 15.024 3.51688 15.1273 3.34523 15.3113C3.17359 15.4953 3.07715 15.7448 3.07715 16.005C3.07715 16.2652 3.17359 16.5147 3.34523 16.6987C3.51688 16.8827 3.74968 16.986 3.99243 16.986C4.09773 16.9902 4.20244 16.9675 4.29793 16.9197C4.39341 16.8719 4.47693 16.8005 4.54159 16.7113V16.9389H4.92235V16.0089ZM3.5055 16.0089C3.51157 15.8985 3.54764 15.7924 3.60926 15.7037C3.67087 15.615 3.75535 15.5475 3.85229 15.5096C3.94923 15.4717 4.0544 15.465 4.15484 15.4903C4.25528 15.5157 4.34662 15.572 4.4176 15.6522C4.48858 15.7325 4.53611 15.8333 4.55433 15.9422C4.57255 16.051 4.56067 16.1632 4.52015 16.2649C4.47964 16.3667 4.41225 16.4535 4.32629 16.5146C4.24033 16.5758 4.13955 16.6087 4.03636 16.6093C3.96358 16.6109 3.89129 16.5962 3.82408 16.5662C3.75688 16.5362 3.69622 16.4915 3.64597 16.4351C3.59571 16.3786 3.55695 16.3116 3.53214 16.2382C3.50732 16.1649 3.49701 16.0868 3.50184 16.0089H3.5055Z" fill="white"/>
</svg>
