<svg width="45" height="16" viewBox="0 0 45 16" fill="none" xmlns="http://www.w3.org/2000/svg">
<path d="M18.5813 14.968V5.67614C18.5813 4.85524 18.8831 4.06796 19.4203 3.4875C19.9575 2.90703 20.6861 2.58093 21.4458 2.58093L23.9845 2.58476C24.7423 2.58641 25.4685 2.91285 26.0037 3.49243C26.5389 4.07201 26.8394 4.85737 26.8393 5.67614V7.65351C26.8393 8.47445 26.5375 9.26178 26.0003 9.84232C25.4632 10.4229 24.7346 10.7491 23.9748 10.7492H20.3865" stroke="#939598" stroke-width="0.5" stroke-linecap="round" stroke-linejoin="round"/>
<path d="M27.8704 2.58093H29.1185C29.4719 2.58093 29.8108 2.71555 30.0607 2.95517C30.3106 3.19479 30.451 3.51978 30.451 3.85865V10.839" stroke="#939598" stroke-width="0.5" stroke-linecap="round" stroke-linejoin="round"/>
<path d="M29.9806 1.46026L29.5073 0.986527C29.4794 0.958626 29.4572 0.925495 29.4421 0.889028C29.427 0.852561 29.4192 0.813473 29.4192 0.773998C29.4192 0.734523 29.427 0.695435 29.4421 0.658968C29.4572 0.622501 29.4794 0.58937 29.5073 0.561469L29.9806 0.0881564C30.0371 0.0317084 30.1137 0 30.1936 0C30.2735 0 30.3501 0.0317084 30.4066 0.0881564L30.8795 0.561469C30.9074 0.58937 30.9296 0.622501 30.9447 0.658968C30.9598 0.695435 30.9676 0.734523 30.9676 0.773998C30.9676 0.813473 30.9598 0.852561 30.9447 0.889028C30.9296 0.925495 30.9074 0.958626 30.8795 0.986527L30.4045 1.46026C30.3765 1.4882 30.3433 1.51036 30.3068 1.52548C30.2703 1.5406 30.2312 1.54838 30.1917 1.54838C30.1522 1.54838 30.1131 1.5406 30.0766 1.52548C30.0401 1.51036 30.0069 1.4882 29.9789 1.46026" fill="#32BCAD"/>
<path d="M32.5171 2.58093H33.667C34.2585 2.58069 34.8259 2.81599 35.2443 3.23509L37.9342 5.93163C38.017 6.01475 38.1154 6.08069 38.2236 6.12567C38.3319 6.17066 38.4479 6.19382 38.5651 6.19382C38.6823 6.19382 38.7983 6.17066 38.9066 6.12567C39.0148 6.08069 39.1132 6.01475 39.196 5.93163L41.8761 3.24537C42.0832 3.03783 42.329 2.87323 42.5996 2.76098C42.8702 2.64874 43.1602 2.59105 43.453 2.59121H44.388" stroke="#939598" stroke-width="0.5" stroke-linecap="round" stroke-linejoin="round"/>
<path d="M32.5171 10.8387H33.667C34.2585 10.8389 34.8258 10.6036 35.2443 10.1845L37.9342 7.48765C38.1016 7.32 38.3285 7.22583 38.5651 7.22583C38.8017 7.22583 39.0286 7.32 39.196 7.48765L41.8761 10.1747C42.2944 10.5937 42.8616 10.8291 43.453 10.8289H44.388" stroke="#939598" stroke-width="0.5" stroke-linecap="round" stroke-linejoin="round"/>
<path d="M11.5998 12.3822C11.3156 12.3832 11.034 12.3255 10.7714 12.2122C10.5087 12.099 10.2701 11.9325 10.0693 11.7224L7.85865 9.41202C7.78046 9.33393 7.67644 9.29034 7.56825 9.29034C7.46006 9.29034 7.35604 9.33393 7.27785 9.41202L5.05968 11.7287C4.85908 11.9392 4.62055 12.106 4.35786 12.2195C4.09517 12.3331 3.81354 12.3912 3.52924 12.3904H3.09644L5.89774 15.3162C6.31788 15.7541 6.88717 16 7.48071 16C8.07424 16 8.64354 15.7541 9.06368 15.3162L11.8706 12.3841L11.5998 12.3822Z" fill="#32BCAD"/>
<path d="M3.52993 4.63933C3.81439 4.63854 4.09619 4.69658 4.35902 4.81011C4.62185 4.92364 4.8605 5.0904 5.06119 5.30075L7.28054 7.61693C7.35768 7.69718 7.46217 7.74224 7.5711 7.74224C7.68003 7.74224 7.78451 7.69718 7.86165 7.61693L10.0731 5.30952C10.2736 5.09891 10.5122 4.93195 10.7751 4.81832C11.0379 4.7047 11.3198 4.64667 11.6043 4.64762H11.8706L9.06218 1.71729C8.85422 1.50022 8.60731 1.32803 8.33556 1.21054C8.0638 1.09306 7.77253 1.03259 7.47837 1.03259C7.18421 1.03259 6.89294 1.09306 6.62118 1.21054C6.34943 1.32803 6.10252 1.50022 5.89456 1.71729L3.09644 4.63933H3.52993Z" fill="#32BCAD"/>
<path d="M14.3015 6.90002L12.5787 5.16851C12.5398 5.18448 12.4983 5.19289 12.4563 5.1933H11.6729C11.2653 5.19432 10.8745 5.35704 10.5856 5.64607L8.34063 7.90089C8.13845 8.10372 7.86446 8.21763 7.5788 8.21763C7.29314 8.21763 7.01915 8.10372 6.81697 7.90089L4.5635 5.63749C4.27464 5.34829 3.88386 5.18539 3.47613 5.18424H2.51442C2.47479 5.18335 2.43562 5.17544 2.39871 5.16089L0.664982 6.90002C0.239152 7.32891 0 7.91006 0 8.51595C0 9.12184 0.239152 9.70299 0.664982 10.1319L2.39492 11.8705C2.43175 11.8557 2.47096 11.8478 2.51063 11.8472H3.47613C3.88385 11.846 4.27462 11.6831 4.5635 11.3939L6.8165 9.12958C7.22385 8.72065 7.93375 8.72065 8.34063 9.12958L10.5856 11.3854C10.8745 11.6744 11.2653 11.8371 11.6729 11.8381H12.4563C12.4983 11.8384 12.5399 11.8468 12.5787 11.8629L14.3015 10.1314C14.5127 9.91922 14.6802 9.66731 14.7945 9.39004C14.9088 9.11278 14.9677 8.81559 14.9677 8.51547C14.9677 8.21535 14.9088 7.91817 14.7945 7.6409C14.6802 7.36364 14.5127 7.1122 14.3015 6.90002Z" fill="#32BCAD"/>
</svg>
