<svg width="20" height="7" viewBox="0 0 20 7" fill="none" xmlns="http://www.w3.org/2000/svg">
<path d="M10.3435 2.60624C10.3321 3.50588 11.1453 4.00796 11.7579 4.30644C12.3872 4.61273 12.5986 4.80911 12.5962 5.08297C12.5914 5.50216 12.0942 5.68714 11.6287 5.69434C10.8168 5.70695 10.3447 5.47514 9.96937 5.29977L9.6769 6.66846C10.0535 6.84202 10.7507 6.99336 11.4738 6.99997C13.171 6.99997 14.2814 6.16218 14.2874 4.86316C14.294 3.21461 12.0071 3.12333 12.0227 2.38643C12.0281 2.16302 12.2413 1.9246 12.7085 1.86394C12.9398 1.83331 13.5782 1.80989 14.3018 2.1432L14.5859 0.818959C14.1967 0.677226 13.6965 0.541498 13.0737 0.541498C11.4762 0.541498 10.3525 1.3907 10.3435 2.60624ZM17.3155 0.655605C17.0056 0.655605 16.7443 0.836375 16.6278 1.11384L14.2034 6.90268H15.8993L16.2369 5.97H18.3094L18.5052 6.90268H20L18.6956 0.655605H17.3155ZM17.5527 2.34319L18.0422 4.689H16.7017L17.5527 2.34319ZM8.28719 0.655605L6.95033 6.90268H8.56645L9.90271 0.655605H8.28719ZM5.89634 0.655605L4.21416 4.9076L3.53372 1.2922C3.45385 0.888624 3.13855 0.655605 2.78842 0.655605H0.0384361L0 0.836976C0.564531 0.959491 1.20593 1.15708 1.5945 1.36848C1.83232 1.4976 1.90019 1.6105 1.97826 1.91739L3.26707 6.90268H4.97508L7.59354 0.655605H5.89634Z" fill="white"/>
</svg>
