<svg style="display:none">
  <symbol id="ChevronLeft" xmlns="http://www.w3.org/2000/svg" fill="none" viewBox="0 0 24 24" stroke-width="1.5" stroke="currentColor" class="w-6 h-6"><path stroke-linecap="round" stroke-linejoin="round" d="M15.75 19.5L8.25 12l7.5-7.5" /></symbol>
  <symbol id="ChevronRight" xmlns="http://www.w3.org/2000/svg" fill="none" viewBox="0 0 24 24" stroke-width="1.5" stroke="currentColor" class="w-6 h-6"><path stroke-linecap="round" stroke-linejoin="round" d="M8.25 4.5l7.5 7.5-7.5 7.5" /></symbol>
  <symbol id="QuestionMarkCircle" xmlns="http://www.w3.org/2000/svg" fill="none" viewBox="0 0 24 24" stroke-width="1.5" stroke="currentColor" class="w-6 h-6"><path stroke-linecap="round" stroke-linejoin="round" d="M9.879 7.519c1.171-1.025 3.071-1.025 4.242 0 1.172 1.025 1.172 2.687 0 3.712-.203.179-.43.326-.67.442-.745.361-1.45.999-1.45 1.827v.75M21 12a9 9 0 11-18 0 9 9 0 0118 0zm-9 5.25h.008v.008H12v-.008z" /></symbol>
  <symbol id="User" width="24" height="24" viewBox="0 0 20 20" fill="none" xmlns="http://www.w3.org/2000/svg"><path fill-rule="evenodd" clip-rule="evenodd" d="M10.0003 3.33333C8.61961 3.33333 7.50033 4.45262 7.50033 5.83333C7.50033 7.21404 8.61961 8.33333 10.0003 8.33333C11.381 8.33333 12.5003 7.21404 12.5003 5.83333C12.5003 4.45262 11.381 3.33333 10.0003 3.33333ZM5.83366 5.83333C5.83366 3.53215 7.69914 1.66667 10.0003 1.66667C12.3015 1.66667 14.167 3.53215 14.167 5.83333C14.167 8.13452 12.3015 10 10.0003 10C7.69914 10 5.83366 8.13452 5.83366 5.83333ZM8.33366 13.3333C7.67062 13.3333 7.03473 13.5967 6.56589 14.0656C6.09705 14.5344 5.83366 15.1703 5.83366 15.8333V17.5C5.83366 17.9602 5.46056 18.3333 5.00033 18.3333C4.54009 18.3333 4.16699 17.9602 4.16699 17.5V15.8333C4.16699 14.7283 4.60598 13.6685 5.38738 12.8871C6.16878 12.1057 7.22859 11.6667 8.33366 11.6667H11.667C12.7721 11.6667 13.8319 12.1057 14.6133 12.8871C15.3947 13.6685 15.8337 14.7283 15.8337 15.8333V17.5C15.8337 17.9602 15.4606 18.3333 15.0003 18.3333C14.5401 18.3333 14.167 17.9602 14.167 17.5V15.8333C14.167 15.1703 13.9036 14.5344 13.4348 14.0656C12.9659 13.5967 12.33 13.3333 11.667 13.3333H8.33366Z" fill="black"/></symbol>
  <symbol id="ShoppingCart" width="24" height="24" viewBox="0 0 20 20" fill="none" xmlns="http://www.w3.org/2000/svg"><path fill-rule="evenodd" clip-rule="evenodd" d="M2.5 2.5C2.5 2.03976 2.8731 1.66667 3.33333 1.66667H5C5.46024 1.66667 5.83333 2.03976 5.83333 2.5V3.39073L16.726 4.16878C16.9567 4.18526 17.1701 4.29682 17.3153 4.47679C17.4604 4.65676 17.5243 4.88895 17.4916 5.11785L16.6583 10.9512C16.5996 11.3617 16.248 11.6667 15.8333 11.6667H5.83333V13.3333H14.1667C15.5474 13.3333 16.6667 14.4526 16.6667 15.8333C16.6667 17.214 15.5474 18.3333 14.1667 18.3333C12.786 18.3333 11.6667 17.214 11.6667 15.8333C11.6667 15.5411 11.7168 15.2606 11.8089 15H7.35774C7.44987 15.2606 7.5 15.5411 7.5 15.8333C7.5 17.214 6.38071 18.3333 5 18.3333C3.61929 18.3333 2.5 17.214 2.5 15.8333C2.5 14.7448 3.19567 13.8188 4.16667 13.4756V4.17527C4.16662 4.17012 4.16662 4.16496 4.16667 4.15979V3.33333H3.33333C2.8731 3.33333 2.5 2.96024 2.5 2.5ZM5.83333 5.06165V10H15.1106L15.7152 5.7675L5.83333 5.06165ZM5 15C4.53976 15 4.16667 15.3731 4.16667 15.8333C4.16667 16.2936 4.53976 16.6667 5 16.6667C5.46024 16.6667 5.83333 16.2936 5.83333 15.8333C5.83333 15.3731 5.46024 15 5 15ZM14.1667 15C13.7064 15 13.3333 15.3731 13.3333 15.8333C13.3333 16.2936 13.7064 16.6667 14.1667 16.6667C14.6269 16.6667 15 16.2936 15 15.8333C15 15.3731 14.6269 15 14.1667 15Z" fill="black"/></symbol>
  <symbol id="Bars3" xmlns="http://www.w3.org/2000/svg" fill="none" viewBox="0 0 24 24" stroke-width="1.5" stroke="currentColor" class="w-6 h-6"><path stroke-linecap="round" stroke-linejoin="round" d="M3.75 6.75h16.5M3.75 12h16.5m-16.5 5.25h16.5" /></symbol>
  <symbol id="Heart" xmlns="http://www.w3.org/2000/svg" fill="none" viewBox="0 0 24 24" stroke-width="1.5" stroke="currentColor" class="w-6 h-6"><path stroke-linecap="round" stroke-linejoin="round" d="M21 8.25c0-2.485-2.099-4.5-4.688-4.5-1.935 0-3.597 1.126-4.312 2.733-.715-1.607-2.377-2.733-4.313-2.733C5.1 3.75 3 5.765 3 8.25c0 7.22 9 12 9 12s9-4.78 9-12z" /></symbol>
  <symbol id="MagnifyingGlass" width="24" height="24" viewBox="0 0 20 20" fill="none" xmlns="http://www.w3.org/2000/svg"><path fill-rule="evenodd" clip-rule="evenodd" d="M8.33366 3.33333C5.57223 3.33333 3.33366 5.57191 3.33366 8.33333C3.33366 11.0948 5.57223 13.3333 8.33366 13.3333C11.0951 13.3333 13.3337 11.0948 13.3337 8.33333C13.3337 5.57191 11.0951 3.33333 8.33366 3.33333ZM1.66699 8.33333C1.66699 4.65143 4.65176 1.66667 8.33366 1.66667C12.0156 1.66667 15.0003 4.65143 15.0003 8.33333C15.0003 9.87392 14.4778 11.2925 13.6002 12.4214L18.0896 16.9107C18.415 17.2362 18.415 17.7638 18.0896 18.0893C17.7641 18.4147 17.2365 18.4147 16.9111 18.0893L12.4217 13.5999C11.2928 14.4774 9.87425 15 8.33366 15C4.65176 15 1.66699 12.0152 1.66699 8.33333Z" fill="black"/></symbol>
  <symbol id="XMark" xmlns="http://www.w3.org/2000/svg" fill="none" viewBox="0 0 24 24" stroke-width="1.5" stroke="currentColor" class="w-6 h-6"><path stroke-linecap="round" stroke-linejoin="round" d="M6 18L18 6M6 6l12 12" /></symbol>
</svg>