<?xml version="1.0" standalone="no"?>
<!DOCTYPE svg PUBLIC "-//W3C//DTD SVG 20010904//EN"
 "http://www.w3.org/TR/2001/REC-SVG-20010904/DTD/svg10.dtd">
<svg version="1.0" xmlns="http://www.w3.org/2000/svg"
 width="510.000000pt" height="510.000000pt" viewBox="0 0 510.000000 510.000000"
 preserveAspectRatio="xMidYMid meet">
<metadata>
Created by potrace 1.14, written by Peter Selinger 2001-2017
</metadata>
<g transform="translate(0.000000,510.000000) scale(0.100000,-0.100000)"
fill="#000000" stroke="none">
<path d="M0 2550 l0 -2550 2550 0 2550 0 0 2550 0 2550 -2550 0 -2550 0 0
-2550z m2085 621 c86 -40 128 -105 128 -200 0 -135 -90 -220 -232 -221 -114 0
-193 59 -220 166 -26 101 28 212 124 255 53 25 147 24 200 0z m685 -11 l0 -30
-80 0 -80 0 0 -60 0 -60 80 0 80 0 0 -30 0 -30 -80 0 -80 0 -1 -85 c-1 -47 -2
-91 -3 -97 0 -7 -16 -14 -33 -16 l-33 -3 0 214 c0 117 3 217 7 220 3 4 55 7
115 7 l108 0 0 -30z m548 -2 l3 -28 -85 0 -86 0 0 -60 0 -60 85 0 85 0 0 -30
0 -30 -85 0 -85 0 0 -100 0 -100 -30 0 -30 0 0 213 c0 118 3 217 7 221 4 3 54
5 112 4 l106 -3 3 -27z m-2528 -683 c41 -21 60 -53 60 -103 0 -84 -57 -132
-155 -132 l-44 0 -3 -92 -3 -93 -32 -3 -33 -3 0 220 0 221 90 0 c61 0 100 -5
120 -15z m558 -5 c67 -41 80 -135 25 -186 -25 -24 -24 -36 8 -64 12 -11 99
-151 99 -160 0 -6 -15 -10 -34 -10 -30 0 -37 6 -71 63 -53 87 -93 127 -127
127 l-27 0 -3 -92 -3 -93 -30 0 -30 0 -3 218 -2 217 82 0 c65 0 90 -4 116 -20z
m682 -10 l0 -30 -90 0 -90 0 0 -62 0 -63 66 3 c95 5 112 -1 106 -38 l-4 -30
-85 0 -84 0 3 -62 3 -63 90 -2 c95 -1 96 -2 80 -50 -5 -14 -197 -19 -229 -7
-14 5 -16 34 -16 220 l0 214 125 0 125 0 0 -30z m445 -55 c37 -46 72 -82 76
-79 5 2 36 41 70 84 55 72 65 80 95 80 l34 0 -2 -217 -3 -218 -30 0 -30 0 -5
162 -5 161 -55 -69 c-30 -39 -60 -75 -66 -80 -9 -7 -30 13 -76 72 l-63 81 -5
-163 -5 -164 -30 0 -30 0 -3 218 -2 217 33 0 c30 0 41 -9 102 -85z m675 -136
l0 -220 -32 3 -33 3 -3 218 -2 217 35 0 35 0 0 -221z m400 71 c0 -163 7 -193
51 -216 33 -17 98 -18 132 -3 46 21 52 44 55 212 l4 157 35 0 35 0 -4 -157
c-4 -179 -14 -211 -75 -253 -31 -21 -48 -25 -112 -25 -89 0 -133 20 -166 75
-17 31 -20 56 -23 198 l-4 162 36 0 36 0 0 -150z m766 65 c52 -65 71 -82 80
-74 8 6 39 44 70 85 51 66 60 74 91 74 l33 0 -2 -217 -3 -218 -30 0 -30 0 -5
163 -5 162 -53 -69 c-79 -104 -71 -104 -144 -10 l-63 82 -5 -164 -5 -164 -30
0 -30 0 -3 218 -2 217 34 0 c32 0 41 -8 102 -85z"/>
<path d="M1899 3107 c-76 -51 -100 -137 -59 -216 57 -112 241 -109 295 5 26
56 17 135 -21 175 -58 62 -153 78 -215 36z"/>
<path d="M650 2364 l0 -67 52 5 c61 6 89 32 82 76 -7 38 -30 52 -86 52 l-48 0
0 -66z"/>
<path d="M1220 2364 l0 -67 43 7 c103 16 101 126 -3 126 l-40 0 0 -66z"/>
</g>
</svg>
