<?xml version="1.0" standalone="no"?>
<!DOCTYPE svg PUBLIC "-//W3C//DTD SVG 20010904//EN"
 "http://www.w3.org/TR/2001/REC-SVG-20010904/DTD/svg10.dtd">
<svg version="1.0" xmlns="http://www.w3.org/2000/svg"
 width="654.000000pt" height="654.000000pt" viewBox="0 0 654.000000 654.000000"
 preserveAspectRatio="xMidYMid meet">
<metadata>
Created by potrace 1.14, written by Peter Selinger 2001-2017
</metadata>
<g transform="translate(0.000000,654.000000) scale(0.100000,-0.100000)"
fill="#000000" stroke="none">
<path d="M3065 6239 c-237 -12 -553 -69 -715 -128 -14 -5 -65 -24 -115 -42
-311 -111 -615 -287 -885 -512 -539 -449 -906 -1080 -1019 -1752 -54 -319 -52
-761 3 -1070 35 -193 80 -352 156 -543 240 -610 675 -1121 1245 -1464 74 -44
291 -154 370 -188 174 -74 380 -134 610 -179 259 -51 679 -59 960 -20 430 61
850 218 1198 451 356 237 623 503 857 853 244 366 392 760 466 1240 27 175 24
634 -5 825 -12 80 -26 161 -31 180 -5 19 -16 67 -26 105 -55 230 -176 533
-291 735 -144 250 -266 412 -473 624 -181 185 -426 379 -613 485 -20 12 -54
31 -74 42 -84 48 -221 113 -338 159 -288 115 -582 179 -925 200 -158 10 -152
10 -355 -1z m1634 -1055 c13 -10 54 -80 96 -168 40 -83 108 -223 152 -311 44
-89 97 -198 117 -243 36 -79 37 -84 22 -108 -10 -13 -26 -24 -39 -24 -12 0
-92 23 -177 50 l-154 51 -18 -23 c-10 -13 -18 -26 -18 -30 0 -3 -17 -44 -39
-90 -39 -84 -233 -522 -396 -893 -230 -523 -336 -745 -473 -985 -212 -371
-436 -612 -685 -734 -224 -109 -524 -150 -827 -112 -719 91 -1014 652 -753
1436 184 556 597 918 1179 1035 164 32 439 35 602 4 71 -13 70 -12 47 -111
-25 -110 -65 -220 -116 -323 -71 -144 -67 -140 -131 -124 -31 8 -102 13 -173
13 -102 -1 -130 -5 -187 -26 -237 -88 -412 -305 -524 -647 -89 -271 -79 -478
31 -599 76 -85 228 -126 379 -103 213 33 350 165 514 497 169 340 290 618 565
1304 107 267 220 543 251 614 31 71 55 130 53 132 -1 1 -69 23 -150 49 -124
40 -150 52 -160 72 -8 17 -8 30 -1 41 9 14 231 106 364 152 14 5 149 56 300
114 151 58 286 105 300 106 14 0 36 -7 49 -16z"/>
</g>
</svg>
