<svg style="display:none">
	<symbol id="Search" xmlns="http://www.w3.org/2000/svg" width="24" height="24" viewBox="0 0 24 24" stroke-width="1.5" stroke="currentColor" fill="none" stroke-linecap="round" stroke-linejoin="round"><path stroke="none" d="M0 0h24v24H0z" fill="none"></path><path d="M10 10m-7 0a7 7 0 1 0 14 0a7 7 0 1 0 -14 0"></path><path d="M21 21l-6 -6"></path></symbol>
	<symbol id="ChevronLeft" xmlns="http://www.w3.org/2000/svg" fill="none" viewBox="0 0 24 24" stroke-width="1.5" stroke="currentColor"><path stroke-linecap="round" stroke-linejoin="round" d="M15.75 19.5L8.25 12l7.5-7.5" /></symbol>
	<symbol id="ChevronRight" xmlns="http://www.w3.org/2000/svg" fill="none" viewBox="0 0 24 24" stroke-width="1.5" stroke="currentColor"><path stroke-linecap="round" stroke-linejoin="round" d="M8.25 4.5l7.5 7.5-7.5 7.5" /></symbol>
	<symbol id="QuestionMarkCircle" xmlns="http://www.w3.org/2000/svg" fill="none" viewBox="0 0 24 24" stroke-width="1.5" stroke="currentColor"><path stroke-linecap="round" stroke-linejoin="round" d="M9.879 7.519c1.171-1.025 3.071-1.025 4.242 0 1.172 1.025 1.172 2.687 0 3.712-.203.179-.43.326-.67.442-.745.361-1.45.999-1.45 1.827v.75M21 12a9 9 0 11-18 0 9 9 0 0118 0zm-9 5.25h.008v.008H12v-.008z" /></symbol>
	<symbol id="User" width="24" height="24" viewBox="0 0 20 20" fill="none" xmlns="http://www.w3.org/2000/svg"><path fill-rule="evenodd" clip-rule="evenodd" d="M10.0003 3.33333C8.61961 3.33333 7.50033 4.45262 7.50033 5.83333C7.50033 7.21404 8.61961 8.33333 10.0003 8.33333C11.381 8.33333 12.5003 7.21404 12.5003 5.83333C12.5003 4.45262 11.381 3.33333 10.0003 3.33333ZM5.83366 5.83333C5.83366 3.53215 7.69914 1.66667 10.0003 1.66667C12.3015 1.66667 14.167 3.53215 14.167 5.83333C14.167 8.13452 12.3015 10 10.0003 10C7.69914 10 5.83366 8.13452 5.83366 5.83333ZM8.33366 13.3333C7.67062 13.3333 7.03473 13.5967 6.56589 14.0656C6.09705 14.5344 5.83366 15.1703 5.83366 15.8333V17.5C5.83366 17.9602 5.46056 18.3333 5.00033 18.3333C4.54009 18.3333 4.16699 17.9602 4.16699 17.5V15.8333C4.16699 14.7283 4.60598 13.6685 5.38738 12.8871C6.16878 12.1057 7.22859 11.6667 8.33366 11.6667H11.667C12.7721 11.6667 13.8319 12.1057 14.6133 12.8871C15.3947 13.6685 15.8337 14.7283 15.8337 15.8333V17.5C15.8337 17.9602 15.4606 18.3333 15.0003 18.3333C14.5401 18.3333 14.167 17.9602 14.167 17.5V15.8333C14.167 15.1703 13.9036 14.5344 13.4348 14.0656C12.9659 13.5967 12.33 13.3333 11.667 13.3333H8.33366Z" fill="black" /></symbol>
	<symbol id="ShoppingCart" width="24" height="24" viewBox="0 0 20 20" fill="none" xmlns="http://www.w3.org/2000/svg"><path fill-rule="evenodd" clip-rule="evenodd" d="M2.5 2.5C2.5 2.03976 2.8731 1.66667 3.33333 1.66667H5C5.46024 1.66667 5.83333 2.03976 5.83333 2.5V3.39073L16.726 4.16878C16.9567 4.18526 17.1701 4.29682 17.3153 4.47679C17.4604 4.65676 17.5243 4.88895 17.4916 5.11785L16.6583 10.9512C16.5996 11.3617 16.248 11.6667 15.8333 11.6667H5.83333V13.3333H14.1667C15.5474 13.3333 16.6667 14.4526 16.6667 15.8333C16.6667 17.214 15.5474 18.3333 14.1667 18.3333C12.786 18.3333 11.6667 17.214 11.6667 15.8333C11.6667 15.5411 11.7168 15.2606 11.8089 15H7.35774C7.44987 15.2606 7.5 15.5411 7.5 15.8333C7.5 17.214 6.38071 18.3333 5 18.3333C3.61929 18.3333 2.5 17.214 2.5 15.8333C2.5 14.7448 3.19567 13.8188 4.16667 13.4756V4.17527C4.16662 4.17012 4.16662 4.16496 4.16667 4.15979V3.33333H3.33333C2.8731 3.33333 2.5 2.96024 2.5 2.5ZM5.83333 5.06165V10H15.1106L15.7152 5.7675L5.83333 5.06165ZM5 15C4.53976 15 4.16667 15.3731 4.16667 15.8333C4.16667 16.2936 4.53976 16.6667 5 16.6667C5.46024 16.6667 5.83333 16.2936 5.83333 15.8333C5.83333 15.3731 5.46024 15 5 15ZM14.1667 15C13.7064 15 13.3333 15.3731 13.3333 15.8333C13.3333 16.2936 13.7064 16.6667 14.1667 16.6667C14.6269 16.6667 15 16.2936 15 15.8333C15 15.3731 14.6269 15 14.1667 15Z" fill="black" /></symbol>
	<symbol id="Bars3" xmlns="http://www.w3.org/2000/svg" fill="none" viewBox="0 0 24 24" stroke-width="1.5" stroke="currentColor"><path stroke-linecap="round" stroke-linejoin="round" d="M3.75 6.75h16.5M3.75 12h16.5m-16.5 5.25h16.5" /></symbol>
	<symbol id="Heart" xmlns="http://www.w3.org/2000/svg" fill="none" viewBox="0 0 24 24" stroke-width="1.5" stroke="currentColor"><path stroke-linecap="round" stroke-linejoin="round" d="M21 8.25c0-2.485-2.099-4.5-4.688-4.5-1.935 0-3.597 1.126-4.312 2.733-.715-1.607-2.377-2.733-4.313-2.733C5.1 3.75 3 5.765 3 8.25c0 7.22 9 12 9 12s9-4.78 9-12z" /></symbol>
	<symbol id="MagnifyingGlass" width="24" height="24" viewBox="0 0 20 20" fill="none" xmlns="http://www.w3.org/2000/svg"><path fill-rule="evenodd" clip-rule="evenodd" d="M8.33366 3.33333C5.57223 3.33333 3.33366 5.57191 3.33366 8.33333C3.33366 11.0948 5.57223 13.3333 8.33366 13.3333C11.0951 13.3333 13.3337 11.0948 13.3337 8.33333C13.3337 5.57191 11.0951 3.33333 8.33366 3.33333ZM1.66699 8.33333C1.66699 4.65143 4.65176 1.66667 8.33366 1.66667C12.0156 1.66667 15.0003 4.65143 15.0003 8.33333C15.0003 9.87392 14.4778 11.2925 13.6002 12.4214L18.0896 16.9107C18.415 17.2362 18.415 17.7638 18.0896 18.0893C17.7641 18.4147 17.2365 18.4147 16.9111 18.0893L12.4217 13.5999C11.2928 14.4774 9.87425 15 8.33366 15C4.65176 15 1.66699 12.0152 1.66699 8.33333Z" fill="black" /></symbol>
	<symbol id="XMark" xmlns="http://www.w3.org/2000/svg" fill="none" viewBox="0 0 24 24" stroke-width="1.5" stroke="currentColor"><path stroke-linecap="round" stroke-linejoin="round" d="M6 18L18 6M6 6l12 12" /></symbol>
	<symbol id="Amex" width="16" height="11" viewBox="0 0 16 11" fill="none" xmlns="http://www.w3.org/2000/svg"><path d="M0.999986 0H15C15.552 0 16 0.41167 16 0.919391V9.64942C16 10.1567 15.552 10.5684 15 10.5684H0.999986C0.447485 10.5684 0 10.1567 0 9.64947V0.919391C0 0.41167 0.447979 0 0.999986 0Z" fill="white" /><path d="M2.58002 3.30264L1 6.76694H2.8915L3.12599 6.21459H3.66199L3.89648 6.76694H5.97849V6.34537L6.16401 6.76694H7.24099L7.42651 6.33646V6.76694H11.7565L12.283 6.22893L12.776 6.76694L15 6.7714L13.415 5.04446L15 3.30264H12.8105L12.298 3.83071L11.8205 3.30264H7.11003L6.70554 4.19681L6.29156 3.30264H4.40401V3.70987L4.19403 3.30264C4.19403 3.30264 2.58002 3.30264 2.58002 3.30264ZM2.94601 3.79458H3.86802L4.91604 6.14374V3.79458H5.92606L6.73554 5.47891L7.48157 3.79458H8.48654V6.28044H7.87504L7.87005 4.33253L6.97853 6.28044H6.43151L5.53501 4.33253V6.28044H4.277L4.03851 5.72314H2.75002L2.51202 6.27995H1.83799L2.94601 3.79458ZM9.04601 3.79458H11.5325L12.293 4.60849L13.078 3.79458H13.8385L12.683 5.04397L13.8385 6.27897H13.0435L12.283 5.4556L11.494 6.27897H9.04601V3.79458ZM3.39454 4.21517L2.97003 5.20795H3.81855L3.39454 4.21517ZM9.66004 4.30928V4.76307H11.0165V5.26886H9.66004V5.76427H11.1815L11.8885 5.03457L11.2115 4.30884H9.66004V4.30928Z" fill="#333333" /></symbol>
	<symbol id="Diners" width="16" height="14" viewBox="0 0 16 14" fill="none" xmlns="http://www.w3.org/2000/svg"><path d="M0.289429 7.03524C0.289429 3.34787 3.27856 0.358624 6.96592 0.358624C10.6533 0.358624 13.6424 3.34787 13.6424 7.03524C13.6424 10.7224 10.6533 13.7118 6.96592 13.7118C3.27856 13.7118 0.289429 10.7224 0.289429 7.03524Z" fill="white" /><path d="M11.0039 6.90307C11.001 5.19344 9.93216 3.73507 8.42662 3.15786V10.6482C9.93216 10.0701 11.001 8.61328 11.0039 6.90307ZM5.55347 10.6468V3.15841C4.049 3.73777 2.98185 5.19396 2.97794 6.90307C2.98185 8.61193 4.049 10.0681 5.55347 10.6468ZM6.99067 0.571918C3.49419 0.573264 0.661526 3.4066 0.660849 6.90307C0.661526 10.3993 3.49419 13.2321 6.99067 13.2327C10.4873 13.2321 13.3209 10.3993 13.3217 6.90307C13.3209 3.4066 10.4873 0.573264 6.99067 0.571918ZM6.97527 13.8303C3.14898 13.8485 0 10.7487 0 6.97524C0 2.85151 3.14898 -0.000710487 6.97527 -1.90735e-05H8.76829C12.5491 -0.000710487 16 2.8503 16 6.97524C16 10.7473 12.5491 13.8303 8.76829 13.8303H6.97527Z" fill="#214E8D" /></symbol>
	<symbol id="Elo" width="20" height="8" viewBox="0 0 20 8" fill="none" xmlns="http://www.w3.org/2000/svg"><path d="M3.11769 2.02881C3.34245 1.95361 3.58295 1.91319 3.83297 1.91319C4.92356 1.91319 5.83356 2.68779 6.04259 3.71775L7.58847 3.40205C7.23379 1.65277 5.68733 0.335546 3.83297 0.335546C3.40785 0.335546 2.99961 0.404692 2.6178 0.532445L3.11769 2.02881Z" fill="white" /><path d="M1.29355 7.03888L2.33896 5.85691C1.87212 5.44334 1.57807 4.84008 1.57807 4.16797C1.57807 3.49615 1.87212 2.89319 2.33838 2.48005L1.29269 1.29794C0.499897 2.00007 0 3.0257 0 4.16797C0 5.31082 0.500474 6.33674 1.29355 7.03888Z" fill="white" /><path d="M6.04164 4.62052C5.83276 5.64932 4.92319 6.42277 3.83288 6.42277C3.58258 6.42277 3.34179 6.38235 3.11703 6.30671L2.61627 7.80337C2.99838 7.93127 3.40747 7.99998 3.83288 7.99998C5.68552 7.99998 7.23169 6.6855 7.58781 4.93708L6.04164 4.62052Z" fill="white" /><path d="M12.0295 5.44026C12.0289 5.44098 12.0287 5.44127 12.0284 5.44199L11.9842 5.41197C11.8576 5.61767 11.6604 5.78397 11.411 5.8918C10.9365 6.09823 10.4969 6.04525 10.1814 5.76838L10.1523 5.81226C10.1521 5.81197 10.1521 5.81154 10.1515 5.81154L9.61304 6.61689C9.74671 6.70956 9.8902 6.78853 10.0408 6.85132C10.6356 7.09816 11.2441 7.08662 11.8434 6.82606C12.2768 6.63854 12.617 6.35186 12.8497 5.98866L12.0295 5.44026ZM10.3488 3.45352C9.84848 3.66875 9.58994 4.13848 9.64321 4.68962L11.7648 3.7763C11.4003 3.34728 10.9252 3.20538 10.3488 3.45352ZM8.94035 5.90667C8.88954 5.82468 8.82068 5.69317 8.77925 5.59674C8.53457 5.02842 8.52274 4.44032 8.72945 3.87576C8.95666 3.25634 9.39117 2.78242 9.95184 2.54106C10.6576 2.23734 11.4377 2.29754 12.1138 2.69841C12.543 2.94468 12.8474 3.32505 13.0787 3.86291C13.1083 3.93177 13.1338 4.00568 13.1592 4.06804L8.94035 5.90667Z" fill="white" /><path d="M14.6341 1.35506V5.83262L15.3302 6.11454L14.9347 7.03725L14.1664 6.71794C13.9938 6.64302 13.8766 6.52869 13.7875 6.39964C13.7029 6.26813 13.6391 6.08769 13.6391 5.84489V1.35506H14.6341Z" fill="white" /><path d="M16.4371 4.69172C16.4377 4.31062 16.6063 3.96865 16.8725 3.73624L16.1583 2.94013C15.6739 3.36843 15.3692 3.99362 15.3683 4.6907C15.3675 5.38851 15.6719 6.01443 16.1564 6.44374L16.8693 5.64647C16.6046 5.41348 16.4371 5.07209 16.4371 4.69172Z" fill="white" /><path d="M17.7061 5.9625C17.5657 5.96221 17.4304 5.93883 17.3038 5.89668L16.9627 6.9112C17.1958 6.98944 17.4459 7.03188 17.7053 7.03216C18.8358 7.03318 19.7803 6.23086 19.9989 5.16423L18.9506 4.95044C18.8317 5.52843 18.3193 5.96308 17.7061 5.9625Z" fill="white" /><path d="M17.7093 2.35349C17.4499 2.3532 17.2007 2.39535 16.9675 2.47287L17.3058 3.48796C17.4324 3.44624 17.5678 3.42286 17.7084 3.42286C18.3231 3.42358 18.8354 3.86068 18.9515 4.44041L20 4.22749C19.7847 3.15956 18.8413 2.35421 17.7093 2.35349Z" fill="white" /></symbol>
	<symbol id="Mastercard" width="20" height="18" viewBox="0 0 20 18" fill="none" xmlns="http://www.w3.org/2000/svg"><path d="M12.7036 2.27694H7.29559V11.9958H12.7036V2.27694Z" fill="#FF5F00" /><path d="M7.63891 7.13759C7.63791 6.20146 7.84993 5.27737 8.25891 4.43531C8.6679 3.59324 9.26313 2.85528 9.99952 2.27729C9.08774 1.56073 7.99276 1.11515 6.83972 0.991462C5.68668 0.867776 4.52211 1.07098 3.47909 1.57785C2.43608 2.08472 1.55671 2.87481 0.941481 3.85781C0.326256 4.84082 0 5.97708 0 7.13673C0 8.29639 0.326256 9.43265 0.941481 10.4157C1.55671 11.3987 2.43608 12.1887 3.47909 12.6956C4.52211 13.2025 5.68668 13.4057 6.83972 13.282C7.99276 13.1583 9.08774 12.7127 9.99952 11.9962C9.26336 11.4184 8.66827 10.6807 8.25929 9.83893C7.85032 8.99718 7.63817 8.07343 7.63891 7.13759Z" fill="#EB001B" /><path d="M19.9999 7.13724C19.9999 8.29698 19.6736 9.43331 19.0583 10.4164C18.4429 11.3994 17.5634 12.1895 16.5203 12.6963C15.4771 13.2031 14.3124 13.4061 13.1593 13.2823C12.0062 13.1584 10.9112 12.7126 9.99951 11.9958C10.7354 11.4175 11.3303 10.6796 11.7394 9.83781C12.1485 8.99602 12.361 8.07231 12.361 7.13638C12.361 6.20045 12.1485 5.27674 11.7394 4.43495C11.3303 3.59316 10.7354 2.85526 9.99951 2.27694C10.9112 1.56016 12.0062 1.11436 13.1593 0.990494C14.3124 0.86663 15.4771 1.0697 16.5203 1.5765C17.5634 2.0833 18.4429 2.87337 19.0583 3.85641C19.6736 4.83945 19.9999 5.97578 19.9999 7.13552V7.13724Z" fill="#F79E1B" /><path d="M19.4093 10.9657V10.7666H19.4899V10.7253H19.2856V10.7666H19.3732V10.9657H19.4093ZM19.8058 10.9657V10.7253H19.744L19.6719 10.897L19.5998 10.7253H19.5449V10.9657H19.5895V10.7854L19.6565 10.9417H19.7028L19.7698 10.7854V10.9674L19.8058 10.9657Z" fill="#F79E1B" /><path d="M2.77511 16.9468V15.7696C2.78151 15.6705 2.76816 15.5712 2.73593 15.4782C2.70371 15.3851 2.65336 15.3005 2.58823 15.23C2.52311 15.1594 2.4447 15.1046 2.35825 15.069C2.27179 15.0335 2.17926 15.0182 2.08683 15.024C1.96584 15.0155 1.84494 15.0419 1.73675 15.1006C1.62856 15.1593 1.53704 15.248 1.47176 15.3575C1.41226 15.2513 1.32711 15.1642 1.22531 15.1055C1.1235 15.0468 1.0088 15.0186 0.893308 15.024C0.792631 15.0185 0.692372 15.0414 0.602467 15.0902C0.512562 15.1391 0.436133 15.2123 0.380754 15.3026V15.0711H0V16.9468H0.384416V15.9147C0.376239 15.8506 0.381383 15.7853 0.399482 15.7236C0.41758 15.6618 0.448185 15.6051 0.48911 15.5575C0.530034 15.5098 0.580266 15.4725 0.636216 15.4481C0.692167 15.4237 0.752452 15.4129 0.812764 15.4164C1.06538 15.4164 1.19352 15.593 1.19352 15.9108V16.9546H1.57793V15.9147C1.57009 15.8507 1.57547 15.7855 1.59369 15.7239C1.61191 15.6623 1.64253 15.6057 1.68339 15.5582C1.72424 15.5107 1.77434 15.4733 1.83013 15.4488C1.88592 15.4243 1.94606 15.4132 2.00628 15.4164C2.26622 15.4164 2.3907 15.593 2.3907 15.9108V16.9546L2.77511 16.9468ZM8.46263 15.0711H7.83658V14.5021H7.45217V15.0711H7.10436V15.4439H7.45949V16.3072C7.45949 16.7427 7.61692 17.0017 8.06723 17.0017C8.23547 17.0023 8.40045 16.952 8.54318 16.8565L8.43334 16.5073C8.33124 16.5726 8.21535 16.609 8.09652 16.6132C7.91347 16.6132 7.84391 16.4877 7.84391 16.2993V15.4439H8.46629L8.46263 15.0711ZM11.71 15.024C11.6172 15.021 11.5253 15.045 11.4442 15.0934C11.363 15.1417 11.2955 15.2126 11.2487 15.2987V15.0711H10.8716V16.9468H11.2524V15.8951C11.2524 15.5851 11.3769 15.4125 11.6185 15.4125C11.6999 15.4113 11.7808 15.4273 11.8565 15.4595L11.9736 15.0671C11.8867 15.0338 11.7951 15.0165 11.7027 15.0161L11.71 15.024ZM6.80049 15.2202C6.58497 15.0828 6.33717 15.0147 6.08658 15.024C5.64359 15.024 5.35436 15.2516 5.35436 15.6244C5.35436 15.9304 5.5667 16.1188 5.95844 16.1777L6.1415 16.2051C6.35018 16.2365 6.44903 16.2954 6.44903 16.4013C6.44903 16.5465 6.30991 16.6289 6.04997 16.6289C5.84088 16.6354 5.63584 16.5663 5.46785 16.4327L5.2848 16.7506C5.50659 16.9166 5.77224 17.0019 6.04265 16.9939C6.54788 16.9939 6.84077 16.7388 6.84077 16.3817C6.84077 16.0246 6.61012 15.8794 6.22936 15.8206L6.04631 15.7931C5.88156 15.7696 5.74976 15.7342 5.74976 15.6087C5.74976 15.4831 5.87423 15.3889 6.08292 15.3889C6.2758 15.3913 6.46488 15.4467 6.63208 15.5498L6.80049 15.2202ZM16.9985 15.024C16.9057 15.021 16.8138 15.045 16.7326 15.0934C16.6514 15.1417 16.5839 15.2126 16.5372 15.2987V15.0711H16.1601V16.9468H16.5409V15.8951C16.5409 15.5851 16.6653 15.4125 16.907 15.4125C16.9884 15.4113 17.0693 15.4273 17.1449 15.4595L17.2621 15.0671C17.1751 15.0338 17.0835 15.0165 16.9912 15.0161L16.9985 15.024ZM12.0926 16.005C12.0881 16.1368 12.1093 16.2682 12.1548 16.3907C12.2004 16.5133 12.2693 16.6242 12.3572 16.7166C12.4451 16.8089 12.55 16.8806 12.6652 16.927C12.7804 16.9734 12.9033 16.9935 13.0262 16.986C13.2548 16.9985 13.4795 16.9187 13.6559 16.7624L13.4728 16.4327C13.3412 16.5403 13.1807 16.5995 13.0152 16.6015C12.8745 16.5893 12.7432 16.5207 12.6474 16.4095C12.5517 16.2982 12.4986 16.1524 12.4986 16.0011C12.4986 15.8497 12.5517 15.7039 12.6474 15.5927C12.7432 15.4814 12.8745 15.4129 13.0152 15.4007C13.1807 15.4027 13.3412 15.4618 13.4728 15.5694L13.6559 15.2398C13.4795 15.0835 13.2548 15.0037 13.0262 15.0161C12.9033 15.0087 12.7804 15.0288 12.6652 15.0752C12.55 15.1216 12.4451 15.1932 12.3572 15.2856C12.2693 15.3779 12.2004 15.4889 12.1548 15.6114C12.1093 15.734 12.0881 15.8653 12.0926 15.9972V16.005ZM15.6585 16.005V15.0711H15.2778V15.2987C15.2131 15.2095 15.1296 15.1381 15.0341 15.0903C14.9386 15.0425 14.8339 15.0198 14.7286 15.024C14.4859 15.024 14.2531 15.1273 14.0814 15.3113C13.9098 15.4953 13.8133 15.7448 13.8133 16.005C13.8133 16.2652 13.9098 16.5147 14.0814 16.6987C14.2531 16.8827 14.4859 16.986 14.7286 16.986C14.8339 16.9902 14.9386 16.9675 15.0341 16.9197C15.1296 16.8719 15.2131 16.8005 15.2778 16.7113V16.9389H15.6585V16.005ZM14.2417 16.005C14.2478 15.8946 14.2838 15.7885 14.3454 15.6998C14.407 15.6111 14.4915 15.5436 14.5885 15.5057C14.6854 15.4678 14.7906 15.4611 14.891 15.4864C14.9915 15.5118 15.0828 15.568 15.1538 15.6483C15.2248 15.7286 15.2723 15.8294 15.2905 15.9382C15.3087 16.0471 15.2969 16.1593 15.2563 16.261C15.2158 16.3627 15.1484 16.4495 15.0625 16.5107C14.9765 16.5719 14.8757 16.6048 14.7725 16.6054C14.7001 16.6064 14.6282 16.5913 14.5614 16.561C14.4946 16.5308 14.4344 16.4861 14.3846 16.4297C14.3347 16.3733 14.2963 16.3064 14.2717 16.2334C14.2471 16.1603 14.2369 16.0825 14.2417 16.005ZM9.647 15.024C9.40425 15.0276 9.1728 15.1345 9.00355 15.321C8.83431 15.5076 8.74114 15.7586 8.74454 16.0187C8.74794 16.2789 8.84762 16.527 9.02168 16.7084C9.19573 16.8898 9.42988 16.9897 9.67263 16.986C9.936 17.0005 10.195 16.9096 10.3994 16.731L10.2163 16.4288C10.0718 16.5531 9.89268 16.6221 9.70741 16.625C9.58155 16.6366 9.45643 16.5951 9.35866 16.5094C9.26089 16.4237 9.19818 16.3004 9.18387 16.1659H10.4836C10.4836 16.1149 10.4836 16.0639 10.4836 16.0089C10.4836 15.4203 10.1431 15.0279 9.65249 15.0279L9.647 15.024ZM9.647 15.3889C9.70397 15.3876 9.76063 15.3984 9.81373 15.4205C9.86683 15.4427 9.91534 15.4759 9.95648 15.5181C9.99762 15.5604 10.0306 15.611 10.0535 15.6669C10.0764 15.7228 10.0888 15.783 10.09 15.8441H9.17472C9.18135 15.7182 9.23372 15.6 9.32062 15.5149C9.40752 15.4298 9.52205 15.3846 9.63968 15.3889H9.647ZM19.186 16.0089V14.3176H18.8199V15.2987C18.7552 15.2095 18.6717 15.1381 18.5762 15.0903C18.4807 15.0425 18.376 15.0198 18.2707 15.024C18.028 15.024 17.7952 15.1273 17.6235 15.3113C17.4519 15.4953 17.3554 15.7448 17.3554 16.005C17.3554 16.2652 17.4519 16.5147 17.6235 16.6987C17.7952 16.8827 18.028 16.986 18.2707 16.986C18.376 16.9902 18.4807 16.9675 18.5762 16.9197C18.6717 16.8719 18.7552 16.8005 18.8199 16.7113V16.9389H19.186V16.0089ZM19.8212 16.6741C19.845 16.6738 19.8686 16.6784 19.8908 16.6878C19.9118 16.697 19.931 16.7103 19.9475 16.727C19.9636 16.744 19.9766 16.7639 19.9859 16.7859C19.9952 16.8088 20 16.8335 20 16.8585C20 16.8835 19.9952 16.9082 19.9859 16.9311C19.9766 16.9531 19.9636 16.973 19.9475 16.99C19.931 17.0067 19.9118 17.02 19.8908 17.0292C19.8688 17.0396 19.8451 17.0449 19.8212 17.0449C19.7865 17.0446 19.7526 17.0338 19.7234 17.0136C19.6942 16.9935 19.671 16.9649 19.6564 16.9311C19.6473 16.9082 19.6426 16.8835 19.6426 16.8585C19.6426 16.8335 19.6473 16.8088 19.6564 16.7859C19.6658 16.7639 19.6788 16.744 19.6949 16.727C19.7114 16.7103 19.7306 16.697 19.7516 16.6878C19.7755 16.6776 19.801 16.673 19.8267 16.6741H19.8212ZM19.8212 17.0057C19.8395 17.0058 19.8576 17.0018 19.8743 16.9939C19.89 16.9863 19.9043 16.9757 19.9164 16.9625C19.9393 16.9357 19.952 16.9007 19.952 16.8644C19.952 16.8281 19.9393 16.7931 19.9164 16.7663C19.9043 16.753 19.8901 16.7424 19.8743 16.7349C19.8575 16.7271 19.8395 16.7231 19.8212 16.7231C19.8029 16.7232 19.7849 16.7272 19.7681 16.7349C19.7517 16.7421 19.7367 16.7528 19.7242 16.7663C19.7013 16.7931 19.6886 16.8281 19.6886 16.8644C19.6886 16.9007 19.7013 16.9357 19.7242 16.9625C19.7368 16.9759 19.7517 16.9866 19.7681 16.9939C19.7866 17.0024 19.8066 17.0064 19.8267 17.0057H19.8212ZM19.8322 16.7722C19.8493 16.7713 19.8661 16.7768 19.8798 16.7879C19.8854 16.7928 19.8898 16.7992 19.8927 16.8063C19.8955 16.8135 19.8968 16.8213 19.8962 16.8291C19.8965 16.8356 19.8955 16.8421 19.8933 16.8482C19.8911 16.8543 19.8877 16.8598 19.8834 16.8644C19.8728 16.8747 19.8593 16.8809 19.845 16.882L19.8981 16.9468H19.856L19.8066 16.882H19.7901V16.9468H19.7553V16.7741L19.8322 16.7722ZM19.7919 16.8055V16.8526H19.8322C19.8393 16.8549 19.847 16.8549 19.8541 16.8526C19.8554 16.8499 19.8561 16.8469 19.8561 16.8438C19.8561 16.8407 19.8554 16.8377 19.8541 16.835C19.8554 16.8322 19.8561 16.8292 19.8561 16.8261C19.8561 16.8231 19.8554 16.82 19.8541 16.8173C19.847 16.815 19.8393 16.815 19.8322 16.8173L19.7919 16.8055ZM17.7783 16.0089C17.7844 15.8985 17.8204 15.7924 17.8821 15.7037C17.9437 15.615 18.0282 15.5475 18.1251 15.5096C18.222 15.4717 18.3272 15.465 18.4276 15.4903C18.5281 15.5157 18.6194 15.572 18.6904 15.6522C18.7614 15.7325 18.8089 15.8333 18.8271 15.9422C18.8454 16.051 18.8335 16.1632 18.793 16.2649C18.7524 16.3667 18.685 16.4535 18.5991 16.5146C18.5131 16.5758 18.4123 16.6087 18.3092 16.6093C18.2367 16.6103 18.1648 16.5952 18.098 16.565C18.0313 16.5347 17.971 16.49 17.9212 16.4336C17.8713 16.3772 17.8329 16.3104 17.8083 16.2373C17.7837 16.1642 17.7735 16.0865 17.7783 16.0089ZM4.92235 16.0089V15.0711H4.54159V15.2987C4.47693 15.2095 4.39341 15.1381 4.29793 15.0903C4.20244 15.0425 4.09773 15.0198 3.99243 15.024C3.74968 15.024 3.51688 15.1273 3.34523 15.3113C3.17359 15.4953 3.07715 15.7448 3.07715 16.005C3.07715 16.2652 3.17359 16.5147 3.34523 16.6987C3.51688 16.8827 3.74968 16.986 3.99243 16.986C4.09773 16.9902 4.20244 16.9675 4.29793 16.9197C4.39341 16.8719 4.47693 16.8005 4.54159 16.7113V16.9389H4.92235V16.0089ZM3.5055 16.0089C3.51157 15.8985 3.54764 15.7924 3.60926 15.7037C3.67087 15.615 3.75535 15.5475 3.85229 15.5096C3.94923 15.4717 4.0544 15.465 4.15484 15.4903C4.25528 15.5157 4.34662 15.572 4.4176 15.6522C4.48858 15.7325 4.53611 15.8333 4.55433 15.9422C4.57255 16.051 4.56067 16.1632 4.52015 16.2649C4.47964 16.3667 4.41225 16.4535 4.32629 16.5146C4.24033 16.5758 4.13955 16.6087 4.03636 16.6093C3.96358 16.6109 3.89129 16.5962 3.82408 16.5662C3.75688 16.5362 3.69622 16.4915 3.64597 16.4351C3.59571 16.3786 3.55695 16.3116 3.53214 16.2382C3.50732 16.1649 3.49701 16.0868 3.50184 16.0089H3.5055Z" fill="white" /></symbol>
	<symbol id="Visa" width="20" height="7" viewBox="0 0 20 7" fill="none" xmlns="http://www.w3.org/2000/svg"><path d="M10.3435 2.60624C10.3321 3.50588 11.1453 4.00796 11.7579 4.30644C12.3872 4.61273 12.5986 4.80911 12.5962 5.08297C12.5914 5.50216 12.0942 5.68714 11.6287 5.69434C10.8168 5.70695 10.3447 5.47514 9.96937 5.29977L9.6769 6.66846C10.0535 6.84202 10.7507 6.99336 11.4738 6.99997C13.171 6.99997 14.2814 6.16218 14.2874 4.86316C14.294 3.21461 12.0071 3.12333 12.0227 2.38643C12.0281 2.16302 12.2413 1.9246 12.7085 1.86394C12.9398 1.83331 13.5782 1.80989 14.3018 2.1432L14.5859 0.818959C14.1967 0.677226 13.6965 0.541498 13.0737 0.541498C11.4762 0.541498 10.3525 1.3907 10.3435 2.60624ZM17.3155 0.655605C17.0056 0.655605 16.7443 0.836375 16.6278 1.11384L14.2034 6.90268H15.8993L16.2369 5.97H18.3094L18.5052 6.90268H20L18.6956 0.655605H17.3155ZM17.5527 2.34319L18.0422 4.689H16.7017L17.5527 2.34319ZM8.28719 0.655605L6.95033 6.90268H8.56645L9.90271 0.655605H8.28719ZM5.89634 0.655605L4.21416 4.9076L3.53372 1.2922C3.45385 0.888624 3.13855 0.655605 2.78842 0.655605H0.0384361L0 0.836976C0.564531 0.959491 1.20593 1.15708 1.5945 1.36848C1.83232 1.4976 1.90019 1.6105 1.97826 1.91739L3.26707 6.90268H4.97508L7.59354 0.655605H5.89634Z" fill="white" /></symbol>
	<symbol id="Logo" viewBox="0 0 566 64" fill="none" xmlns="http://www.w3.org/2000/svg"><path d="M26.336 0.959996C12.96 0.959996 3.896 7.56 3.896 18.12C3.896 40.032 37.16 32.376 37.16 46.104C37.16 50.856 32.848 53.584 25.632 53.584C19.032 53.584 11.112 50.416 4.776 44.608L0.288 53.584C6.624 59.392 15.776 63.352 25.456 63.352C39.008 63.352 48.688 56.576 48.688 45.576C48.776 23.4 15.512 30.616 15.512 17.152C15.512 13.016 19.472 10.728 25.544 10.728C30.208 10.728 36.896 12.4 43.584 16.448L47.896 7.296C42.176 3.51199 34.344 0.959996 26.336 0.959996ZM102.902 10.728V1.4H53.5342V10.728H72.9822V63H83.3662V10.728H102.902ZM135.648 1.136C117.256 1.136 103 14.512 103 32.2C103 49.8 117.256 63.44 135.648 63.44C154.04 63.44 168.296 49.8 168.296 32.2C168.296 14.6 154.04 1.136 135.648 1.136ZM135.736 10.464C147.792 10.464 157.648 19.968 157.648 32.2C157.648 44.432 147.792 54.112 135.736 54.112C123.68 54.112 113.56 44.432 113.56 32.2C113.56 19.968 123.592 10.464 135.736 10.464ZM218.418 63H230.21L216.394 42.408C224.578 39.24 229.154 32.288 229.154 22.432C229.154 9.056 220.09 1.4 204.338 1.4H179.346V63H189.73V44.432H204.338C205.306 44.432 206.274 44.432 207.154 44.344L218.418 63ZM189.73 35.104V10.728H204.338C213.842 10.728 219.298 14.6 219.298 22.696C219.298 31.056 213.842 35.104 204.338 35.104H189.73ZM286.94 10.728V1.4H242.94V63H287.996V53.672H253.324V36.688H283.42V27.36H253.324V10.728H286.94ZM333.761 53.584V1.4H323.377V63H360.425V53.584H333.761ZM397.929 1.136C379.537 1.136 365.281 14.512 365.281 32.2C365.281 49.8 379.537 63.44 397.929 63.44C416.321 63.44 430.577 49.8 430.577 32.2C430.577 14.6 416.321 1.136 397.929 1.136ZM398.017 10.464C410.073 10.464 419.929 19.968 419.929 32.2C419.929 44.432 410.073 54.112 398.017 54.112C385.961 54.112 375.841 44.432 375.841 32.2C375.841 19.968 385.873 10.464 398.017 10.464ZM481.287 32.728V49.888C476.887 52.528 471.695 54.112 467.119 54.112C454.535 54.112 444.591 44.52 444.591 32.2C444.591 19.968 454.447 10.376 467.031 10.376C473.455 10.376 480.055 13.016 484.807 17.416L490.703 9.76C484.631 4.48 475.831 1.136 467.031 1.136C448.375 1.136 434.031 14.6 434.031 32.2C434.031 49.8 448.199 63.44 466.415 63.44C474.863 63.44 484.103 60.184 490.351 55.432V32.728H481.287ZM532.593 1.136C514.201 1.136 499.945 14.512 499.945 32.2C499.945 49.8 514.201 63.44 532.593 63.44C550.985 63.44 565.241 49.8 565.241 32.2C565.241 14.6 550.985 1.136 532.593 1.136ZM532.681 10.464C544.737 10.464 554.593 19.968 554.593 32.2C554.593 44.432 544.737 54.112 532.681 54.112C520.625 54.112 510.505 44.432 510.505 32.2C510.505 19.968 520.537 10.464 532.681 10.464Z" fill="#282828" /></symbol>
	<symbol id="Facebook" xmlns="http://www.w3.org/2000/svg" viewBox="0 0 24 24" stroke-width="1.5" stroke="#2c3e50" fill="none" stroke-linecap="round" stroke-linejoin="round"><path stroke="none" d="M0 0h24v24H0z" fill="none" /><path d="M7 10v4h3v7h4v-7h3l1 -4h-4v-2a1 1 0 0 1 1 -1h3v-4h-3a5 5 0 0 0 -5 5v2h-3" /></symbol>
	<symbol id="Instagram" xmlns="http://www.w3.org/2000/svg" viewBox="0 0 24 24" stroke-width="1.5" stroke="#2c3e50" fill="none" stroke-linecap="round" stroke-linejoin="round"><path stroke="none" d="M0 0h24v24H0z" fill="none" /><rect x="4" y="4" width="16" height="16" rx="4" /><circle cx="12" cy="12" r="3" /><line x1="16.5" y1="7.5" x2="16.5" y2="7.501" /></symbol>
	<symbol id="Tiktok" xmlns="http://www.w3.org/2000/svg" viewBox="0 0 24 24" stroke-width="1.5" stroke="#2c3e50" fill="none" stroke-linecap="round" stroke-linejoin="round"><path stroke="none" d="M0 0h24v24H0z" fill="none" /><path d="M9 12a4 4 0 1 0 4 4v-12a5 5 0 0 0 5 5" /></symbol>
</svg>